<?xml version="1.0" standalone="no"?>
<!DOCTYPE svg PUBLIC "-//W3C//DTD SVG 20010904//EN"
 "http://www.w3.org/TR/2001/REC-SVG-20010904/DTD/svg10.dtd">
<svg version="1.0" xmlns="http://www.w3.org/2000/svg"
 width="500.000000pt" height="500.000000pt" viewBox="0 0 500.000000 500.000000"
 preserveAspectRatio="xMidYMid meet">

<g transform="translate(0.000000,500.000000) scale(0.100000,-0.100000)"
fill="#000000" stroke="none">
<path d="M0 2500 l0 -2500 2500 0 2500 0 0 2500 0 2500 -2500 0 -2500 0 0
-2500z m3095 1949 c230 -32 408 -117 570 -270 135 -128 216 -257 257 -408 29
-105 31 -334 4 -436 -69 -260 -232 -429 -465 -481 -100 -22 -210 -15 -286 20
-53 24 -157 113 -196 167 l-18 26 64 41 c91 60 166 148 219 256 61 124 77 188
83 341 6 145 -8 226 -52 302 -66 111 -318 155 -512 90 -125 -42 -226 -110
-354 -237 -280 -278 -467 -690 -545 -1202 -21 -138 -30 -555 -15 -684 24 -203
63 -342 135 -478 59 -112 128 -184 225 -235 121 -63 210 -83 371 -84 117 -1
148 2 232 26 265 72 460 241 587 508 28 57 49 104 48 105 -1 1 -36 -5 -77 -13
-47 -10 -138 -16 -245 -17 -167 -1 -171 0 -226 27 -82 40 -193 159 -213 228
-20 66 -20 161 -1 225 l14 49 663 -3 c656 -3 663 -3 681 -24 9 -11 17 -26 17
-34 0 -8 9 -14 20 -14 27 0 40 -30 40 -93 0 -81 -36 -125 -142 -176 -46 -21
-97 -42 -114 -46 -29 -6 -32 -9 -48 -87 -111 -516 -453 -933 -888 -1082 -156
-53 -258 -69 -453 -70 -198 -1 -289 12 -437 64 -212 72 -328 147 -504 324 -77
77 -152 164 -183 211 -137 208 -218 445 -252 728 -16 134 -6 559 15 691 88
536 304 982 627 1291 369 354 870 522 1354 454z"/>
</g>
</svg>
