<?xml version="1.0" standalone="no"?>
<!DOCTYPE svg PUBLIC "-//W3C//DTD SVG 20010904//EN"
 "http://www.w3.org/TR/2001/REC-SVG-20010904/DTD/svg10.dtd">
<svg version="1.0" xmlns="http://www.w3.org/2000/svg"
 width="100" height="100" viewBox="0 0 400 500"
 preserveAspectRatio="xMidYMid meet">

<g transform="translate(0.000000,500.000000) scale(0.100000,-0.100000)"
fill="#000000" stroke="none">
<path d="M2295 4489 c-389 -41 -775 -204 -1074 -453 -707 -591 -921 -1585
-517 -2411 261 -532 724 -910 1298 -1059 199 -52 271 -61 498 -61 227 0 299 9
498 61 574 149 1040 529 1297 1059 312 641 264 1378 -129 1980 -149 229 -373
445 -618 597 -365 227 -825 332 -1253 287z m763 -769 c66 -29 133 -102 163
-178 18 -45 23 -78 23 -157 1 -94 -1 -105 -32 -167 -50 -102 -150 -183 -269
-218 l-42 -13 -6 -66 c-3 -36 -9 -88 -14 -116 -8 -46 -9 -42 -10 45 -3 185
-40 312 -91 318 -14 1 -96 -11 -183 -28 -179 -34 -261 -37 -351 -14 -55 14
-161 63 -153 70 2 2 28 -6 58 -18 44 -18 75 -22 164 -22 98 -1 125 3 240 36
72 21 153 40 181 44 92 11 147 -34 160 -130 6 -42 9 -46 28 -40 71 22 184 122
210 187 37 88 27 205 -26 297 -24 43 -39 56 -85 77 -112 52 -266 16 -463 -108
-282 -176 -383 -194 -498 -85 -33 30 -69 86 -56 86 3 0 19 -9 34 -20 49 -35
113 -60 155 -60 54 0 135 40 274 135 129 88 235 140 325 161 84 19 199 12 264
-16z m-963 -5 c71 -19 144 -57 182 -97 l28 -29 -60 27 c-89 41 -203 46 -278
11 -93 -42 -129 -108 -129 -232 0 -112 26 -177 104 -258 33 -34 62 -57 64 -52
2 6 -5 51 -15 100 -10 50 -17 91 -16 93 6 7 68 -179 83 -248 l16 -75 85 18
c113 24 282 25 381 2 68 -16 225 -73 218 -80 -2 -2 -43 10 -92 27 -154 51
-316 50 -518 -4 l-78 -20 0 -43 0 -42 68 19 c107 32 301 35 431 9 57 -12 117
-28 135 -36 26 -13 27 -14 6 -11 -234 42 -456 20 -672 -65 l-51 -20 8 53 c12
91 22 212 18 229 -3 8 -19 24 -36 34 -55 32 -148 128 -173 178 -111 217 -37
462 155 513 61 17 67 17 136 -1z m1437 -962 c25 -22 23 -43 -22 -298 -22 -123
-37 -231 -34 -239 10 -25 50 -19 76 13 24 27 54 168 100 464 l12 77 32 0 c41
0 64 -22 64 -61 0 -16 -18 -130 -40 -254 -22 -123 -37 -231 -34 -239 8 -21 43
-20 72 2 19 15 27 38 43 123 10 57 19 118 19 135 0 35 19 45 65 36 45 -8 49
-35 26 -164 -12 -63 -19 -123 -15 -132 10 -25 43 -19 76 14 16 17 34 30 39 30
19 0 8 -50 -17 -80 -57 -67 -127 -79 -176 -29 -30 30 -31 30 -52 11 -57 -52
-113 -56 -158 -11 -30 30 -31 30 -52 11 -58 -53 -115 -57 -160 -9 l-31 33 -34
-23 c-87 -59 -206 -56 -265 6 l-29 30 -19 -25 c-45 -57 -118 -70 -166 -29 -41
35 -46 65 -26 179 18 107 12 129 -25 94 -35 -32 -71 -119 -90 -214 -16 -82
-17 -84 -44 -84 -73 0 -79 26 -48 200 11 58 16 109 12 113 -4 4 -19 -1 -33
-12 -42 -33 -98 -183 -98 -263 0 -37 -1 -38 -38 -38 -26 0 -45 7 -57 20 -18
20 -18 35 1 127 l6 31 -36 -12 c-28 -10 -42 -23 -58 -55 -55 -112 -211 -147
-292 -66 l-34 34 -22 -24 c-27 -29 -99 -55 -152 -55 -46 0 -104 22 -135 52
l-23 22 -28 -26 c-65 -61 -119 -65 -168 -13 -32 34 -34 35 -44 15 -6 -11 -24
-27 -40 -35 -52 -27 -107 -16 -142 29 l-17 21 -30 -29 c-20 -20 -43 -30 -75
-33 -41 -5 -48 -2 -77 26 -31 32 -31 33 -27 111 l5 78 -22 -14 c-12 -8 -27
-32 -34 -54 -35 -118 -175 -182 -286 -131 -89 40 -130 125 -123 258 6 110 37
183 105 243 136 120 333 70 333 -84 0 -49 -43 -97 -88 -98 -35 -1 -79 30 -54
39 34 13 56 115 30 141 -33 33 -110 3 -152 -59 -57 -84 -78 -246 -42 -321 35
-73 134 -78 196 -11 l35 38 -49 6 c-52 6 -79 29 -74 63 3 17 12 19 107 17 58
-1 109 -3 115 -4 12 -2 23 42 25 99 1 46 16 56 66 46 43 -8 49 -37 31 -145
-22 -129 -21 -167 3 -167 10 0 30 9 43 20 21 16 26 30 30 83 8 91 47 160 112
194 38 20 114 19 134 -1 14 -14 18 -14 33 0 17 15 82 24 94 12 3 -3 -6 -66
-20 -141 -13 -75 -22 -143 -19 -152 9 -22 48 -18 71 8 14 16 20 36 20 72 1
104 68 194 160 213 104 23 189 -47 151 -124 -18 -36 -39 -48 -72 -40 -23 6
-27 11 -21 29 15 49 17 79 5 87 -21 13 -50 -1 -78 -38 -22 -29 -27 -48 -30
-106 -4 -66 -2 -73 23 -96 34 -32 114 -34 166 -4 31 18 35 25 41 81 11 97 62
176 133 203 46 17 121 14 157 -7 37 -21 78 -92 78 -135 0 -36 19 -36 52 0 20
20 28 42 34 89 5 50 10 62 26 66 29 8 67 -9 79 -36 l11 -24 29 28 c50 47 110
44 145 -8 l21 -32 29 30 c54 56 130 54 160 -4 15 -28 15 -39 -1 -134 -9 -57
-14 -111 -11 -119 8 -20 39 -18 67 5 18 15 23 27 21 61 -8 126 87 232 209 232
56 0 84 -14 103 -50 31 -59 -11 -118 -107 -152 -31 -11 -63 -20 -71 -20 -42 0
-16 -69 34 -90 59 -24 174 15 185 63 17 81 75 433 75 460 0 19 3 37 7 40 12
13 67 7 85 -10z m626 -55 c17 -17 14 -55 -11 -122 -25 -67 -49 -89 -70 -66
-21 23 -11 187 12 193 32 9 57 7 69 -5z m-3003 -33 c36 -35 32 -60 -13 -84
-55 -29 -101 57 -50 93 30 21 35 20 63 -9z m2773 9 c31 -22 30 -69 -3 -90 -23
-15 -27 -15 -50 0 -33 21 -34 68 -3 90 12 9 25 16 28 16 3 0 16 -7 28 -16z
m480 -182 c61 -28 79 -105 27 -118 -42 -11 -60 -1 -63 34 -5 46 -40 69 -79 50
-18 -8 -29 -22 -31 -39 -3 -22 5 -30 56 -57 102 -55 130 -96 108 -163 -30 -92
-219 -107 -284 -24 -29 36 -28 61 3 81 36 24 75 6 75 -34 0 -34 16 -52 48 -52
37 0 62 18 62 45 0 20 -11 31 -52 53 -102 53 -143 113 -116 168 36 74 150 100
246 56z m-3044 -640 l23 -46 21 39 c39 74 42 75 40 5 l-1 -65 -6 50 -6 50 -19
-43 c-11 -24 -23 -45 -28 -48 -4 -3 -18 16 -30 42 l-23 47 -6 -49 -6 -49 -1
63 c-2 73 7 73 42 4z m232 2 c14 -31 23 -59 20 -62 -3 -3 -8 3 -12 12 -8 22
-63 21 -81 -1 -12 -16 -12 -15 -2 8 9 21 16 25 40 21 29 -4 29 -4 17 23 -11
25 -13 25 -25 9 -7 -10 -13 -15 -13 -11 0 9 23 57 27 57 2 0 15 -25 29 -56z
m138 50 c9 -3 16 -11 16 -17 0 -7 -4 -7 -12 1 -17 17 -48 15 -48 -3 0 -9 10
-19 23 -24 37 -14 52 -38 37 -57 -16 -19 -72 -15 -78 6 -4 12 -2 13 9 3 18
-18 59 -16 59 2 0 8 -13 21 -29 30 -38 19 -46 32 -31 50 13 16 29 19 54 9z
m147 -11 c11 -15 11 -16 -1 -5 -8 6 -22 12 -31 12 -33 0 -30 -20 6 -41 26 -16
35 -27 33 -43 -2 -17 -10 -21 -37 -21 -22 0 -36 5 -38 15 -4 12 -3 12 5 2 11
-16 54 -12 59 5 3 7 -12 19 -31 27 -37 15 -45 33 -24 54 17 17 43 15 59 -5z
m149 -43 c17 -33 26 -60 20 -60 -6 0 -13 7 -16 15 -9 22 -74 20 -74 -2 0 -9
-3 -14 -6 -10 -6 5 35 117 43 117 1 0 16 -27 33 -60z m148 40 c5 -13 3 -13
-11 -1 -18 14 -47 9 -47 -9 0 -5 16 -16 35 -24 19 -8 35 -21 35 -28 0 -37 -57
-51 -81 -20 -11 14 -11 15 1 5 20 -18 60 -16 60 2 0 8 -13 21 -30 30 -28 15
-39 43 -23 59 12 12 56 2 61 -14z m258 -98 c-4 -3 -12 3 -19 13 -10 13 -23 16
-45 13 -36 -5 -37 -3 -16 32 14 23 14 23 9 3 -5 -19 -2 -23 14 -23 25 0 27 22
5 44 -8 9 -12 21 -8 27 4 8 19 -11 36 -45 16 -32 27 -61 24 -64z m132 106 c16
-16 15 -23 -3 -41 -13 -13 -12 -18 6 -41 11 -14 16 -26 10 -26 -6 0 -18 11
-27 25 -9 14 -20 25 -25 25 -5 0 -9 -11 -9 -25 0 -14 -4 -25 -10 -25 -6 0 -10
27 -10 60 0 59 0 60 28 60 15 0 33 -5 40 -12z m155 5 c-21 -4 -23 -10 -23 -59
0 -30 -4 -54 -10 -54 -5 0 -10 24 -10 54 0 49 -2 55 -22 59 -13 2 2 4 32 4 30
0 45 -2 33 -4z m120 0 c-25 -3 -33 -9 -33 -24 0 -14 7 -19 28 -20 l27 -2 -27
-4 c-22 -3 -28 -10 -28 -28 0 -19 6 -24 33 -28 31 -4 31 -4 -5 -5 l-38 -2 0
60 0 60 38 -2 c36 -1 36 -1 5 -5z m141 1 c9 -3 16 -11 16 -17 0 -7 -4 -7 -12
1 -17 17 -48 15 -48 -3 0 -9 10 -19 23 -24 37 -14 52 -38 37 -57 -16 -19 -72
-15 -78 6 -4 12 -2 13 9 3 18 -18 59 -16 59 2 0 8 -13 21 -29 30 -38 19 -46
32 -31 50 13 16 29 19 54 9z m156 -54 c17 -33 26 -60 20 -60 -6 0 -13 7 -16
15 -9 22 -74 20 -74 -2 0 -9 -3 -14 -6 -10 -6 5 35 117 43 117 1 0 16 -27 33
-60z m190 -2 l0 -62 -44 43 -45 44 -4 -44 c-3 -38 -4 -37 -5 16 l-2 59 45 -44
45 -44 0 47 c0 26 2 47 5 47 3 0 5 -28 5 -62z m163 -58 c-2 -3 -9 3 -14 13
-13 23 -65 23 -78 0 -19 -34 -11 -4 15 54 l26 58 28 -60 c16 -33 26 -62 23
-65z m87 60 c0 -33 -4 -60 -10 -60 -11 0 -14 103 -3 113 12 12 13 8 13 -53z
m141 43 c11 -15 11 -16 -1 -5 -8 6 -22 12 -31 12 -33 0 -30 -20 6 -41 26 -16
35 -27 33 -43 -2 -17 -10 -21 -37 -21 -22 0 -36 5 -38 15 -4 12 -3 12 5 2 11
-16 54 -12 59 5 3 7 -12 19 -31 27 -37 15 -45 33 -24 54 17 17 43 15 59 -5z
m-791 -333 l0 -50 -405 0 -405 0 0 50 0 50 405 0 405 0 0 -50z"/>
<path d="M2173 2460 c-31 -12 -61 -76 -75 -159 -14 -83 -5 -124 30 -129 29 -4
48 11 73 59 21 41 25 84 9 94 -17 11 -11 63 10 83 18 17 18 20 4 40 -17 24
-19 25 -51 12z"/>
<path d="M3205 2460 c-28 -11 -51 -39 -70 -83 -14 -33 -14 -37 0 -37 46 0 105
55 105 97 0 27 -9 33 -35 23z"/>
<path d="M1377 2430 c-32 -26 -58 -94 -60 -158 -2 -59 11 -77 47 -68 31 8 67
72 90 161 11 43 12 63 4 72 -15 19 -52 16 -81 -7z"/>
<path d="M1982 1856 c-11 -24 -10 -26 13 -26 28 0 31 8 12 34 -12 17 -14 16
-25 -8z"/>
<path d="M2520 1875 c0 -20 4 -26 18 -23 9 2 17 12 17 23 0 11 -8 21 -17 23
-14 3 -18 -3 -18 -23z"/>
<path d="M3092 1856 c-11 -24 -10 -26 13 -26 28 0 31 8 12 34 -12 17 -14 16
-25 -8z"/>
<path d="M3427 1866 c-11 -28 -8 -36 13 -36 23 0 25 9 7 34 -13 18 -14 18 -20
2z"/>
</g>
</svg>
